<?xml version="1.0" encoding="UTF-8"?>
<svg id="Layer_1" xmlns="http://www.w3.org/2000/svg" version="1.1" viewBox="0 0 320 180">
  <!-- Generator: Adobe Illustrator 30.1.0, SVG Export Plug-In . SVG Version: 2.1.1 Build 136)  -->
  <defs>
    <style>
      .st0 {
        fill: #c7c7c7;
        font-size: 15.62px;
      }

      .st0, .st1, .st2, .st3, .st4, .st5 {
        isolation: isolate;
      }

      .st0, .st1, .st4 {
        font-family: Arial-BoldMT, Arial;
        font-weight: 700;
      }

      .st1 {
        fill: #fff;
        font-size: 11.85px;
      }

      .st6 {
        fill: none;
        stroke: #e5e1df;
        stroke-linecap: round;
        stroke-linejoin: round;
        stroke-width: 2px;
      }

      .st3 {
        font-size: 14.14px;
      }

      .st3, .st5 {
        fill: #aaa6a0;
        font-family: ArialMT, Arial;
      }

      .st7 {
        fill: #171717;
        stroke: #4a4a4a;
      }

      .st8 {
        fill: #151515;
        stroke: #303030;
      }

      .st4 {
        fill: #b48768;
        font-size: 15.71px;
      }

      .st5 {
        font-size: 14.23px;
      }
    </style>
  </defs>
  <g>
    <g class="st2">
      <g class="st2">
        <text class="st4" transform="translate(42.58 34.75)"><tspan x="0" y="0">FEATURE</tspan></text>
      </g>
    </g>
    <rect class="st8" x="25.75" y="48.05" width="119.38" height="103.68" rx="8" ry="8"/>
    <g class="st2">
      <g class="st2">
        <text class="st3" transform="translate(41.46 79.47)"><tspan x="0" y="0">m/z 312.18</tspan></text>
      </g>
    </g>
    <g class="st2">
      <g class="st2">
        <text class="st3" transform="translate(41.46 107.74)"><tspan x="0" y="0">RT 4.7 min</tspan></text>
      </g>
    </g>
    <g class="st2">
      <g class="st2">
        <text class="st3" transform="translate(41.46 136.02)"><tspan x="0" y="0">pos mode</tspan></text>
      </g>
    </g>
  </g>
  <g>
    <g class="st2">
      <g class="st2">
        <text class="st0" transform="translate(208.21 34.75)"><tspan x="0" y="0">MATCH</tspan></text>
      </g>
    </g>
    <rect class="st8" x="175.35" y="46.73" width="117.65" height="104.32" rx="8" ry="8"/>
    <g class="st2">
      <g class="st2">
        <text class="st5" transform="translate(194.43 79.92)"><tspan x="0" y="0">HMDB</tspan></text>
      </g>
    </g>
    <g class="st2">
      <g class="st2">
        <text class="st5" transform="translate(194.43 108.38)"><tspan x="0" y="0">Lipid-like</tspan></text>
      </g>
    </g>
    <path class="st7" d="M203.96,119.44h60.41c5.27,0,9.54,4.24,9.54,9.48h0c0,5.24-4.27,9.48-9.54,9.48h-60.41c-5.27,0-9.54-4.24-9.54-9.48h0c0-5.24,4.27-9.48,9.54-9.48h0Z"/>
    <path class="st6" d="M211.92,129.76l5.4,5.48,10.79-12.34"/>
    <g class="st2">
      <g class="st2">
        <text class="st1" transform="translate(234.17 132.88)"><tspan x="0" y="0">hit</tspan></text>
      </g>
    </g>
  </g>
</svg>