<?xml version="1.0" encoding="UTF-8"?>
<svg id="Layer_1" xmlns="http://www.w3.org/2000/svg" version="1.1" viewBox="0 0 320 180">
  <!-- Generator: Adobe Illustrator 30.1.0, SVG Export Plug-In . SVG Version: 2.1.1 Build 136)  -->
  <defs>
    <style>
      .st0 {
        stroke: #c7c7c7;
      }

      .st0, .st1, .st2 {
        fill: none;
        stroke-linecap: round;
      }

      .st0, .st2 {
        stroke-width: 2.4px;
      }

      .st3, .st4, .st5 {
        isolation: isolate;
      }

      .st6, .st7 {
        stroke: #151515;
        stroke-width: 3px;
      }

      .st6, .st5 {
        fill: #b48768;
      }

      .st1 {
        stroke: #8a7568;
        stroke-dasharray: 4 4;
        stroke-width: 2.2px;
      }

      .st7, .st4 {
        fill: #c7c7c7;
      }

      .st4, .st5 {
        font-family: Arial-BoldMT, Arial;
        font-size: 13.3px;
        font-weight: 700;
      }

      .st2 {
        stroke: #b48768;
      }
    </style>
  </defs>
  <g class="st3">
    <text class="st5" transform="translate(33.7 34.08)"><tspan x="0" y="0">GENES</tspan></text>
  </g>
  <g class="st3">
    <text class="st4" transform="translate(203.01 34.08)"><tspan x="0" y="0">PROTEINS</tspan></text>
  </g>
  <g>
    <line class="st2" x1="22.35" y1="100.41" x2="76.28" y2="74.87"/>
    <line class="st2" x1="22.35" y1="100.41" x2="76.28" y2="137.31"/>
    <line class="st2" x1="76.28" y1="74.87" x2="104.66" y2="111.76"/>
    <line class="st2" x1="76.28" y1="137.31" x2="104.66" y2="111.76"/>
    <line class="st0" x1="218.18" y1="140.14" x2="272.1" y2="100.41"/>
    <line class="st0" x1="272.1" y1="100.41" x2="297.65" y2="131.63"/>
    <line class="st1" x1="118.43" y1="100.95" x2="169.47" y2="64.5"/>
    <line class="st1" x1="104.66" y1="112.3" x2="160.27" y2="152.03"/>
    <line class="st0" x1="164.26" y1="69.19" x2="218.18" y2="74.87"/>
    <line class="st0" x1="164.26" y1="154.34" x2="218.18" y2="140.14"/>
    <line class="st0" x1="219.01" y1="74.87" x2="271.27" y2="100.41"/>
  </g>
  <g>
    <circle class="st6" cx="22.35" cy="100.41" r="11.35"/>
    <circle class="st6" cx="76.28" cy="74.87" r="11.35"/>
    <circle class="st6" cx="76.28" cy="137.31" r="11.35"/>
    <circle class="st6" cx="104.66" cy="111.76" r="12.77"/>
    <circle class="st7" cx="164.26" cy="69.19" r="8.51"/>
    <circle class="st7" cx="164.26" cy="154.34" r="8.51"/>
    <circle class="st7" cx="218.18" cy="74.87" r="11.35"/>
    <circle class="st7" cx="218.18" cy="140.14" r="11.35"/>
    <circle class="st7" cx="272.1" cy="100.41" r="12.77"/>
    <circle class="st7" cx="297.65" cy="131.63" r="11.35"/>
  </g>
</svg>