<?xml version="1.0" encoding="UTF-8"?>
<svg id="Layer_1" xmlns="http://www.w3.org/2000/svg" version="1.1" viewBox="0 0 320 180">
  <!-- Generator: Adobe Illustrator 30.1.0, SVG Export Plug-In . SVG Version: 2.1.1 Build 136)  -->
  <defs>
    <style>
      .st0 {
        fill: #67645f;
        font-family: ArialMT, Arial;
        font-size: 8.79px;
      }

      .st0, .st1, .st2 {
        isolation: isolate;
      }

      .st1, .st2 {
        font-family: Arial-BoldMT, Arial;
        font-size: 10.98px;
        font-weight: 700;
      }

      .st1, .st3 {
        fill: #20303c;
      }

      .st4, .st2 {
        fill: #8b5a2b;
      }

      .st5, .st6, .st7, .st8, .st9 {
        fill: none;
      }

      .st5, .st8 {
        stroke-width: 1.6px;
      }

      .st5, .st9 {
        stroke: #8b5a2b;
        stroke-linecap: round;
      }

      .st6, .st10 {
        stroke: #ded9d1;
      }

      .st7 {
        stroke-width: 1.2px;
      }

      .st7, .st8 {
        stroke: #b8b1a6;
      }

      .st9 {
        stroke-width: 2.5px;
      }

      .st10 {
        fill: #fff;
      }
    </style>
  </defs>
  <g>
    <line class="st6" x1="114.54" y1="28.49" x2="114.54" y2="151.51"/>
    <line class="st6" x1="213.39" y1="28.49" x2="213.39" y2="151.51"/>
  </g>
  <g>
    <text class="st2" transform="translate(22.28 39.48)"><tspan x="0" y="0">INPUT</tspan></text>
    <rect class="st10" x="17.89" y="50.46" width="70.29" height="76.88" rx="8" ry="8"/>
    <line class="st6" x1="17.89" y1="70.23" x2="88.18" y2="70.23"/>
    <line class="st6" x1="17.89" y1="90" x2="88.18" y2="90"/>
    <line class="st6" x1="17.89" y1="109.77" x2="88.18" y2="109.77"/>
    <line class="st6" x1="39.85" y1="50.46" x2="39.85" y2="127.34"/>
    <text class="st0" transform="translate(24.48 65.84)"><tspan x="0" y="0">ID</tspan></text>
    <text class="st0" transform="translate(46.45 65.84)"><tspan x="0" y="0">f1</tspan></text>
    <text class="st0" transform="translate(46.45 85.61)"><tspan x="0" y="0">f2</tspan></text>
    <text class="st0" transform="translate(46.45 105.38)"><tspan x="0" y="0">f3</tspan></text>
    <text class="st0" transform="translate(46.52 122.95)"><tspan x="0" y="0">f4</tspan></text>
  </g>
  <g>
    <text class="st1" transform="translate(140.9 39.48)"><tspan x="0" y="0">ANALYSIS</tspan></text>
    <line class="st7" x1="134.31" y1="127.34" x2="198.02" y2="127.34"/>
    <line class="st7" x1="134.31" y1="127.34" x2="134.31" y2="59.25"/>
    <path class="st9" d="M143.1,114.16c6.59-9.89,12.08-35.15,19.77-32.95s12.08,21.97,19.77,10.98c6.59-9.89,8.79-27.46,19.77-37.34"/>
    <circle class="st3" cx="182.64" cy="92.2" r="3.62"/>
    <circle class="st3" cx="202.41" cy="54.85" r="3.62"/>
    <text class="st0" transform="translate(143.1 142.72)"><tspan x="0" y="0">stats</tspan></text>
    <text class="st0" transform="translate(178.25 142.72)"><tspan x="0" y="0">plots</tspan></text>
    <circle class="st3" cx="160.67" cy="81.83" r="3.62"/>
  </g>
  <g>
    <text class="st2" transform="translate(233.03 38.99)"><tspan x="0" y="0">PATHWAYS</tspan></text>
    <line class="st8" x1="252.8" y1="67.55" x2="280.26" y2="86.22"/>
    <line class="st8" x1="252.8" y1="67.55" x2="250.6" y2="110.38"/>
    <line class="st8" x1="280.26" y1="86.22" x2="250.6" y2="110.38"/>
    <circle class="st4" cx="252.8" cy="67.55" r="8.79"/>
    <circle class="st3" cx="280.26" cy="86.22" r="8.79"/>
    <circle class="st4" cx="250.6" cy="110.38" r="8.79"/>
    <circle class="st10" cx="301.7" cy="142.82" r="6.59"/>
    <line class="st5" x1="297.31" y1="142.82" x2="306.09" y2="142.82"/>
    <line class="st5" x1="301.7" y1="138.42" x2="301.7" y2="147.21"/>
  </g>
</svg>